<?xml version="1.0" encoding="UTF-8"?>
<svg width="512" height="512" viewBox="0 0 512 512" fill="none" xmlns="http://www.w3.org/2000/svg">
  <rect width="512" height="512" fill="#F0F0F5"/>
  <path d="M256 128C238.327 128 224 142.327 224 160C224 177.673 238.327 192 256 192C273.673 192 288 177.673 288 160C288 142.327 273.673 128 256 128ZM248 208H264V304H248V208ZM391.8 128.4L376.4 147.2C403.7 173.3 416 205.5 416 256C416 330.1 355.7 390.4 282 396.6V364.4C337.9 358.3 384 312.9 384 256C384 216 374.7 189.1 354.2 168.8L338.8 187.6C354.7 205.3 360 223.8 360 256C360 299.7 325.7 334 282 339.6V307.4C313 302.3 336 280.9 336 256C336 234.2 324.9 216.9 305.2 206.8L289.8 225.6C299.7 230.9 312 238.9 312 256C312 268.9 299.7 286.3 282 291.4V260.2C283.4 258.9 284 257.5 284 256C284 251.6 280.4 248 276 248H236C231.6 248 228 251.6 228 256C228 260.4 231.6 264 236 264H248V322.5C172.3 313.9 96 292.3 96 256C96 223.8 101.3 205.3 117.2 187.6L101.8 168.8C81.3 189.1 72 216 72 256C72 327.5 198.6 347.9 248 350.8V380.4C158.9 374.5 40 341.9 40 256C40 205.5 52.3 173.3 79.6 147.2L64.2 128.4C29 161.3 8 202.5 8 256C8 385.8 196.7 406.5 248 406.5V432H264V406.5C315.3 406.5 504 385.8 504 256C504 202.5 483 161.3 447.8 128.4V128.4Z" fill="#4F46E5"/>
</svg>