<?xml version="1.0" encoding="UTF-8"?>
<svg width="192" height="192" viewBox="0 0 192 192" fill="none" xmlns="http://www.w3.org/2000/svg">
  <rect width="192" height="192" rx="42" fill="#4F46E5"/>
  <path d="M43.5 96.5V141.5H148.5V96.5H129.5C129.5 118.5 111.478 136.5 89.5 136.5H83.5C61.5 136.5 43.5 118.5 43.5 96.5ZM86.5 51.5C58.5 51.5 35.5 74.5 35.5 102.5V149.5H156.5V102.5C156.5 74.5 133.5 51.5 105.5 51.5H86.5ZM89.5 59.5C111.5 59.5 129.5 77.5 129.5 99.5V104.5H148.5V99.5C148.5 73.104 127 51.5 100.5 51.5H91.5C65 51.5 43.5 73 43.5 99.5V104.5H62.5V99.5C62.5 77.5 80.5 59.5 102.5 59.5H89.5Z" fill="white"/>
</svg>